<?xml version="1.0" encoding="UTF-8"?>
<svg version="1.1" viewBox="0 0 1600 888" width="1280" height="1280" xmlns="http://www.w3.org/2000/svg">
<path transform="translate(0)" d="m0 0h1600v888h-1600v-888z" fill="#FEFEFE"/>
<path transform="translate(727 281)" d="m0 0c0.65-0 1.3-0.01 1.96-0.02 2.14-0.01 4.28-0.02 6.42-0.02 1.1-0.01 1.1-0.01 2.22-0.01 3.89-0.02 7.78-0.02 11.7-0.03 3.99 0 7.99-0.03 12-0.06 3.09-0.02 6.18-0.02 9.27-0.02 1.47-0.01 2.94-0.01 4.41-0.03 15-0.12 29 3.03 40.4 13.5 15.3 17 15.6 38.8 15.1 60.4-0.07 2.76-0.11 5.52-0.14 8.28-0.34 17.4-4.34 30.6-16.6 43.5-14.4 13.8-29.5 14.9-48.6 14.7-1.37-0.01-2.74-0.01-4.11-0.02-5.76-0.04-11.5-0.08-17.3-0.14-3.55-0.04-7.09-0.06-10.6-0.07-2-0.02-3.99-0.04-5.99-0.07-1.21-0.01-2.42-0.01-3.66-0.01-1.07-0.01-2.13-0.02-3.23-0.03-2.62 0.17-2.62 0.17-4.49 1.48-1.7 2.76-1.51 4.95-1.48 8.18 0 1.31 0 2.61 0.01 3.96 0.02 1.44 0.04 2.87 0.05 4.31 0.01 1.49 0.02 2.97 0.02 4.46 0.02 3.94 0.06 7.88 0.09 11.8 0.07 6.97 0.11 14 0.14 20.9 0.01 0.74 0.01 1.49 0.02 2.26 0.07 12.7-0.26 25.3-1.01 38-4.87 1.07-9.46 1.18-14.4 1.19-0.83 0.01-1.66 0.02-2.52 0.04h-2.47c-0.73 0.01-1.47 0.01-2.22 0.01-2.96-0.3-5.54-1.27-8.35-2.24-0.07-25-0.12-49.9-0.15-74.9-0.02-11.6-0.04-23.2-0.07-34.8-0.03-10.1-0.05-20.2-0.06-30.3 0-5.34-0.01-10.7-0.03-16-0.03-5.04-0.03-10.1-0.03-15.1 0-1.84 0-3.68-0.02-5.52-0.09-16 1.76-29.5 11.7-42.7 8.57-8.57 20.1-14.8 32.2-14.8z" fill="#1E1F20"/>
<path transform="translate(928 280)" d="m0 0c2.71-0 5.41-0.02 8.12-0.04 28-0.1 28-0.1 39 6.04 0.66 0.33 1.31 0.66 1.98 1 4.16 2.19 7.2 4.69 10.4 8.19 0.51 0.5 1.02 1 1.55 1.52 14 15 15 34.5 14.8 53.8-0.02 2.93 0 5.87 0.02 8.8 0.02 18.2 0.02 18.2-3.41 26.9-0.62 1.63-0.62 1.63-1.26 3.31-6.18 12.7-15.4 22.7-29 27.5-7.93 2.42-15.5 2.66-23.7 2.61-1.42 0.01-2.84 0.01-4.26 0.01-2.95 0.01-5.9 0-8.85-0.01-3.76-0.02-7.52-0.01-11.3 0.01-2.92 0.01-5.84 0-8.76 0-1.39-0.01-2.77 0-4.15 0-15.4 0.07-28.5-3.76-40-14.5-10.2-10.9-13.9-25.2-13.9-39.7 0-0.84-0.01-1.69-0.01-2.56-0.01-1.79-0.01-3.58-0.01-5.37 0-2.69-0.02-5.38-0.04-8.07-0.07-20.9 2.46-38 17-54.2 15.5-14.9 35.7-15.2 55.7-15.2z" fill="#1E1F20"/>
<path transform="translate(1233 281)" d="m0 0c1.71-0 3.41-0 5.12-0.01 3.56 0 7.12 0 10.7 0.02 4.54 0.01 9.07 0 13.6-0.01 3.52-0.01 7.04-0.01 10.6-0 1.68-0 3.35-0 5.02-0.01 13.4-0.04 24.2 0.72 34.8 9.53 8.1 9.56 9.82 20.6 9.75 32.8 0 0.97-0.01 1.94-0.01 2.94-0.15 9.5-1.25 17.5-7.3 25.2-0.76 1.01-1.53 2.02-2.31 3.06-6.62 7.23-14.1 10.6-23.7 11.9-2.59 0.11-5.16 0.18-7.75 0.2-0.75 0.01-1.5 0.02-2.28 0.03-2.47 0.04-4.93 0.06-7.4 0.08-1.72 0.03-3.44 0.05-5.15 0.07-4.51 0.05-9.02 0.1-13.5 0.15-4.6 0.05-9.21 0.11-13.8 0.16-9.03 0.11-18 0.21-27.1 0.31-0.05 2.25-0.08 4.51-0.11 6.76-0.02 1.26-0.05 2.52-0.07 3.81 0.24 4.54 1.06 6.22 4.18 9.43 3.93 2.62 7.28 2.28 11.8 2.27 1.35 0.01 1.35 0.01 2.74 0.02 1.96 0.01 3.92 0.01 5.89 0.01 3.1 0.01 6.21 0.02 9.31 0.04 8.83 0.06 17.7 0.09 26.5 0.11 5.4 0.02 10.8 0.05 16.2 0.09 2.07 0.01 4.13 0.02 6.19 0.02 2.87 0 5.75 0.02 8.62 0.04 0.86-0.01 1.72-0.01 2.6-0.02 2.37 0.03 2.37 0.03 6.12 0.42 2.29 3.44 2.3 4.92 2.41 8.98 0.04 1.16 0.08 2.33 0.12 3.52 0.05 1.83 0.05 1.83 0.1 3.69 0.03 1.22 0.07 2.45 0.11 3.71 0.1 3.03 0.18 6.07 0.26 9.1-4.39 3.3-8.34 3.43-13.6 3.39-1.29 0-1.29 0-2.6 0.01-2.84 0.02-5.68 0.01-8.51 0-1.99 0-3.97 0-5.95 0.01-4.16 0-8.31-0.01-12.5-0.02-5.3-0.02-10.6-0.01-15.9 0.01-4.1 0.01-8.19 0.01-12.3 0-1.95 0-3.9 0-5.86 0.01-16.4 0.04-32.5-1.02-45.2-12.8-8.2-8.92-10.6-19.7-10.7-31.5 0-0.65 0-1.3-0.01-1.96 0-2.13-0.01-4.25-0.01-6.37 0-1.49 0-2.98-0.01-4.47 0-3.12-0.01-6.24-0.01-9.35 0-3.97-0.01-7.94-0.03-11.9-0.01-3.08-0.01-6.16-0.01-9.24 0-1.46 0-2.92-0.01-4.38-0.1-19.8-0.1-19.8 4.61-28.8 0.4-0.78 0.8-1.56 1.22-2.37 2.85-4.68 6.09-8.16 10.5-11.4 1.29-0.99 1.29-0.99 2.6-2 10-5.62 20.9-5.32 32.1-5.27z" fill="#1E1F20"/>
<path transform="translate(225 281)" d="m0 0c0.95-0.01 1.9-0.01 2.88-0.02 3.14-0.01 6.29 0 9.43 0.01 2.19 0 4.38-0.01 6.57-0.01 4.6 0 9.19 0 13.8 0.02 5.87 0.01 11.7 0 17.6-0.01 4.53-0.01 9.05-0.01 13.6 0 2.16 0 4.32 0 6.49-0.01 3.03-0.01 6.07 0 9.11 0.02 0.88-0.01 1.76-0.01 2.67-0.02 13.6 0.14 26.4 6.34 36.4 15.5 11.1 12 16.4 26.6 16.1 42.9-1.58 15.2-7.77 29.1-19.6 39.1-14.4 10.9-26.8 13.3-44.5 13.1-1.42 0-2.84 0-4.26-0.01-3.69 0-7.39-0.02-11.1-0.04-3.78-0.03-7.57-0.03-11.4-0.04-7.4-0.03-14.8-0.06-22.2-0.1-1.59 3.17-1.39 6.61-1.56 10.1-0.04 0.84-0.08 1.68-0.13 2.55-0.49 10.9-0.44 21.8-0.41 32.7v6.85l0.03 17.8c0.01 6.09 0.01 12.2 0.02 18.3 0.01 11.9 0.03 23.8 0.05 35.7-3.62 0.99-6.72 1.05-10.5 0.91-1.87-0.06-1.87-0.06-3.78-0.13-1.3-0.05-2.59-0.1-3.93-0.16-1.96-0.06-1.96-0.06-3.97-0.13-9.71-0.36-9.71-0.36-10.8-1.49-0.1-1.68-0.13-3.36-0.14-5.03 0-1.1-0.01-2.19-0.01-3.31v-3.66c0-1.26-0.01-2.52-0.01-3.83-0.01-3.47-0.01-6.95-0.01-10.4 0-2.9-0.01-5.81-0.01-8.71-0.01-6.86-0.01-13.7-0.01-20.6 0-7.07-0.01-14.1-0.02-21.2-0.02-6.06-0.02-12.1-0.02-18.2 0-3.62 0-7.25-0.02-10.9-0.01-4.05 0-8.1 0-12.2 0-1.19-0.01-2.38-0.01-3.61 0.03-9.52 0.57-19 7.26-26.4 7.83-5.93 14.4-7.16 24-7.17 1.28 0 1.28 0 2.58-0.01 1.8 0 3.6-0.01 5.4-0.01 2.76 0 5.51-0.02 8.27-0.04h5.25c0.82-0.01 1.65-0.02 2.5-0.02 5.82 0.02 5.82 0.02 8.05 2.25 0.05 2.21 0.05 2.21-0.13 4.81-0.06 3.57 0.05 5.04 1.69 8.31 2.62 2.02 4.07 2.38 7.33 2.28 4.53-0.87 8.34-3.54 12.2-5.9 0.94-0.55 1.88-1.11 2.84-1.68 5.85-3.45 11.6-7.01 17.4-10.6 6.08-3.73 12.4-7.12 18.6-10.6 7.51-4.16 7.51-4.16 14-9.65 0.18-3.72 0.18-3.72-1-7l-2-1v-2c-0.56-0.28-1.12-0.56-1.7-0.84-8.32-4.2-16.3-8.92-24.3-13.7-5.59-3.37-11.2-6.69-16.9-9.98-2.73-1.59-5.43-3.22-8.1-4.89-0.63-0.38-1.25-0.75-1.89-1.15-1.68-1.02-3.35-2.06-5.02-3.1-3.89-1.61-6.12-1.35-10.2-0.3-4.84 4.58-4.57 9.85-4.83 16.3-0.17 2.73-0.17 2.73-1.17 3.73-1.73 0.1-3.46 0.14-5.19 0.14-1.11 0.01-2.22 0.02-3.36 0.02-1.81 0-1.81 0-3.66 0.01-1.23 0-2.46 0-3.73 0.01h-7.84c-2.69 0-5.37 0.01-8.05 0.02-3.86 0.02-7.71 0.03-11.6 0.03-1.2 0.01-2.4 0.01-3.64 0.02-1.67 0-1.67 0-3.38-0.01-1.48 0-1.48 0-2.98 0.01-2.68-0.26-4.32-0.89-6.6-2.25-0.1-3.93-0.17-7.87-0.22-11.8-0.03-2-0.08-3.99-0.13-5.99-0.02-1.88-0.02-1.88-0.04-3.79-0.02-1.16-0.05-2.32-0.07-3.51 0.46-2.91 0.46-2.91 1.9-4.57 3.9-2.05 7.6-1.76 11.9-1.73z" fill="#1E1F20"/>
<path transform="translate(1076 281)" d="m0 0c2.05 0.01 4.09 0.01 6.14 0.02 5.36 0.01 10.7 0.05 16.1 0.1 5.48 0.04 11 0.06 16.4 0.08 10.7 0.04 21.4 0.11 32.2 0.19v2h2v25c-6.74 2.25-6.74 2.25-10.4 2.18-0.82 0-1.64-0.01-2.49-0.02-1.33-0.03-1.33-0.03-2.69-0.05-1.98-0.02-3.95-0.04-5.93-0.06-1.05-0.01-2.11-0.02-3.19-0.03-9.53-0.06-19 0.11-28.6 0.24-2.52 0.04-5.04 0.06-7.57 0.09-3.7 0.03-7.4 0.08-11.1 0.14-1.12 0.01-2.25 0.01-3.41 0.02-5.57 0.1-9.89 0.23-14.6 3.49-2.47 3.9-3 8.14-3 12.7 1.27 4.22 2.71 6.37 6 9.31 6.32 1.2 12.6 1.09 19 0.99 2.14-0.01 4.28-0.03 6.42-0.05 3.33-0.03 6.66-0.06 9.98-0.11 35.6-0.47 35.6-0.47 47.6 11.1 7.16 7.68 9.71 15 10.5 25.4 0.08 1.02 0.16 2.04 0.24 3.09 0.78 12.2-1.73 22.2-9.39 31.8-7.34 8.04-15.7 11-26.3 11.8-2.92 0.13-5.83 0.16-8.74 0.16-0.83 0.01-1.65 0.01-2.5 0.02-2.68 0.01-5.37 0.02-8.06 0.02-0.92 0.01-1.84 0.01-2.79 0.01-4.88 0.02-9.75 0.03-14.6 0.03-5.03 0.01-10.1 0.03-15.1 0.06-3.87 0.02-7.75 0.02-11.6 0.02-1.85 0.01-3.71 0.02-5.56 0.03-2.59 0.02-5.18 0.01-7.77 0.01-0.76 0.01-1.53 0.02-2.31 0.02-4.49-0.03-7.34-0.63-10.9-3.38-3.64-4.94-2.33-12.2-2-18 0.41-2.63 0.97-4.53 2-7 3.14-1.57 6.5-1.15 9.95-1.16 0.82 0 1.64-0.01 2.49-0.01 1.79-0.01 3.57-0.02 5.36-0.03 2.83-0.01 5.66-0.03 8.49-0.05 8.04-0.06 16.1-0.12 24.1-0.15 4.91-0.02 9.83-0.06 14.8-0.1 1.87-0.02 3.75-0.02 5.62-0.03 2.63 0 5.25-0.03 7.87-0.05 0.78 0 1.55 0 2.35 0.01 4.49-0.07 7.42-0.64 11-3.43 2.48-4.96 1.64-11.6 1-17-1.14-2.62-1.96-3.56-4.41-5-12.4-4.82-30.3-2.04-43.4-1.83-2.81 0.04-5.63 0.07-8.45 0.09-1.26 0.03-1.26 0.03-2.55 0.05-9.96 0.05-19.9-3.52-27.4-10.2-8.85-10.4-11.8-23.8-10.8-37.1 1.72-12.2 6.16-20.9 15.2-29.2 11.1-6.99 22.4-6.32 35-6.18z" fill="#1E1F20"/>
<path transform="translate(391 281)" d="m0 0c1.08 0.01 2.16 0.02 3.27 0.03 1.75 0.01 1.75 0.01 3.53 0.02 1.23 0.02 2.45 0.03 3.71 0.05 1.23 0.01 2.46 0.02 3.73 0.03 3.05 0.02 6.1 0.06 9.15 0.1 3.92 7.84 2.08 19.6 1.95 28.2-0.04 3.13-0.07 6.26-0.09 9.39-0.05 5.79-0.1 11.6-0.19 17.4-0.06 4.06-0.09 8.12-0.11 12.2-0.01 1.53-0.03 3.06-0.06 4.59-0.21 10.5 0.41 21.3 8.1 29.3 1.28 1.03 1.28 1.03 2.58 2.08 0.86 0.72 1.72 1.44 2.61 2.17 3.24 2.42 4.98 2.78 8.97 2.82 0.99 0.02 1.99 0.03 3.01 0.04 1.07 0.01 2.15 0.02 3.26 0.03 1.11 0 2.22 0.01 3.36 0.02l7.05 0.03c3.58 0.02 7.16 0.06 10.7 0.11 2.29 0.01 4.58 0.02 6.86 0.02 1.06 0.02 2.13 0.04 3.22 0.06 7.2-0.02 13.9-0.93 19.4-6 8.53-9.78 5.81-29.1 5.98-41.1 0.04-2.23 0.08-4.46 0.12-6.68 0.29-17.9 0.38-35.8 0.26-53.7 4.34-2.18 10.2-1.19 15-1.19 1.21-0.01 2.42-0.02 3.68-0.04h3.5c1.07-0.01 2.14-0.01 3.23-0.02 2.59 0.25 2.59 0.25 4.59 2.25 0.2 2.95 0.28 5.81 0.27 8.77 0.01 0.91 0.01 1.82 0.02 2.76 0.01 3.02 0.01 6.04 0.01 9.06 0 2.1 0.01 4.2 0.01 6.3 0.01 4.41 0.01 8.83 0 13.2 0 5.64 0.01 11.3 0.04 16.9 0.01 4.34 0.01 8.69 0.01 13 0 2.08 0 4.16 0.01 6.23 0.08 17.8-1.35 32.7-14.4 46.1-1.32 1.21-2.65 2.4-4 3.57-0.52 0.47-1.04 0.94-1.57 1.42-14.4 11.7-34.5 9.76-51.8 9.76-3.17 0-6.35 0.02-9.53 0.04-2.05 0-4.1 0.01-6.15 0.01-0.93 0-1.87 0.01-2.83 0.02-15.5-0.05-29-4.25-40.8-14.6-9.25-10.5-14.6-20.1-14.6-34.4-0.01-0.96-0.01-1.91-0.01-2.89-0.01-3.14-0.01-6.27 0-9.4 0-2.19 0-4.37-0.01-6.55 0-4.56 0.01-9.13 0.02-13.7 0.01-5.86 0-11.7-0.01-17.6-0.01-4.5-0.01-9 0-13.5 0-2.16 0-4.32-0.01-6.49 0-3.01 0.01-6.02 0.02-9.03-0.01-0.9-0.01-1.8-0.01-2.72 0.05-8.2 0.05-8.2 4.88-8.62z" fill="#1E1F20"/>
<path transform="translate(279 490)" d="m0 0c0.66-0 1.31-0.01 1.99-0.01 2.21-0.01 4.43 0 6.64 0.01 1.6-0 3.2-0.01 4.79-0.01 4.4-0.01 8.8-0.01 13.2 0 4.74 0 9.49 0 14.2-0.01 9.29-0.01 18.6 0 27.9 0 7.55 0.01 15.1 0.01 22.6 0h3.25 6.54c20.4 0 40.9 0 61.3 0.01 17.6 0.01 35.1 0.01 52.7 0 20.4-0.01 40.8-0.01 61.1-0.01h6.51 3.24c7.54 0.01 15.1 0 22.6 0 9.19-0.01 18.4-0.01 27.6 0.01h14.1c4.29-0.01 8.58-0.01 12.9 0 1.56 0.01 3.12 0.01 4.68 0 2.1-0.01 4.21 0 6.31 0.01h3.55c2.73 0.25 2.73 0.25 4.73 2.25 0.17 2.56 0.23 5.01 0.19 7.56v2.12c-0.05 5.18-0.05 5.18-1.19 6.32-2.07 0.1-4.14 0.13-6.21 0.13-0.99 0-0.99 0-2 0.01h-6.7-4.83c-4.44 0.01-8.88 0.01-13.3 0.01-4.78 0-9.56 0-14.3 0.01-9.37 0.01-18.8 0.01-28.1 0.01h-22.8c-21.6 0.01-43.1 0.02-64.7 0.02h-3.52-3.53c-18.9 0-37.8 0.01-56.7 0.02-19.4 0.01-38.8 0.02-58.1 0.02-10.9 0-21.8 0-32.7 0.01-9.27 0.01-18.5 0.02-27.8 0.01-4.73-0.01-9.47-0.01-14.2 0-4.33 0.01-8.65 0.01-13 0-1.57 0-3.14 0-4.71 0.01-2.13 0-4.25 0-6.38-0.01h-3.58c-2.75-0.25-2.75-0.25-4.75-2.25-0.2-3.26-0.2-3.26-0.13-7.12 0.02-1.28 0.04-2.57 0.06-3.89 0.02-0.98 0.05-1.97 0.07-2.99 3.54-2.19 6.41-2.25 10.5-2.25z" fill="#1E1F20"/>
<path transform="translate(744 309)" d="m0 0c0.98 0.01 1.97 0.03 2.98 0.04 2.07 0.04 4.14 0.08 6.21 0.14 3.15 0.08 6.29 0.1 9.43 0.12 12 0.2 20.4 0.74 29.2 9.5 0.51 0.73 1.03 1.46 1.56 2.21 0.54 0.73 1.07 1.47 1.63 2.22 5.19 8.13 4.56 17.1 4.56 26.4 0 2.09 0.02 4.17 0.03 6.25 0.05 10.8-0.09 20.2-8.01 28.3-8.32 7.82-16.6 7.51-27.6 7.67-1.4 0.03-2.8 0.06-4.2 0.08-2.91 0.06-5.83 0.1-8.74 0.15-3.75 0.05-7.49 0.13-11.2 0.21-2.88 0.06-5.76 0.11-8.64 0.15-1.38 0.03-2.76 0.05-4.13 0.09-1.93 0.04-3.85 0.06-5.77 0.08-1.09 0.02-2.19 0.04-3.31 0.06-0.86-0.11-1.71-0.22-2.59-0.34-2.28-3.41-2.26-4.67-2.29-8.69-0.02-1.75-0.02-1.75-0.04-3.54 0-1.26 0-2.53-0.01-3.83-0.01-1.96-0.01-1.96-0.02-3.95-0.01-2.77-0.01-5.53-0.01-8.3 0-3.52-0.03-7.03-0.06-10.6-0.03-3.38-0.03-6.76-0.03-10.1-0.02-1.25-0.03-2.5-0.04-3.79 0.04-7.99 0.7-15.6 5.99-22 7.3-6.81 15.4-8.84 25.1-8.59z" fill="#FEFEFE"/>
<path transform="translate(276 454)" d="m0 0c0.66-0 1.32-0.01 2-0.01 2.22-0.01 4.45 0 6.68 0.01 1.6-0 3.21-0.01 4.81-0.01 4.43-0.01 8.86-0.01 13.3 0 4.77 0 9.54 0 14.3-0.01 9.34-0.01 18.7 0 28 0 7.59 0.01 15.2 0.01 22.8 0h3.26 6.58c20.6 0 41.1 0 61.7 0.01 17.7 0.01 35.3 0.01 53 0 20.5-0.01 41-0.01 61.5-0.01h6.55 3.26c7.59 0.01 15.2 0 22.8 0 9.24-0.01 18.5-0.01 27.7 0.01h14.2c4.32-0.01 8.63-0.01 13 0 1.56 0.01 3.13 0.01 4.7 0 2.11-0.01 4.23 0 6.35 0.01h3.57c2.74 0.25 2.74 0.25 4.74 2.25 1.07 4.93 0.99 9.06 0 14-1.81 1.82-4.64 1.13-7.08 1.13h-1.95c-2.19 0.01-4.38 0-6.57 0h-4.73c-4.35 0.01-8.7 0.01-13 0-4.69 0-9.37 0-14 0.01h-27.6c-7.47-0.01-14.9-0.01-22.4 0h-3.22-6.46c-20.2 0-40.5 0-60.7-0.01h-52.1c-20.2 0.01-40.3 0.01-60.4 0.01h-6.45-3.2c-7.46-0.01-14.9 0-22.4 0-9.09 0-18.2 0-27.3-0.01h-13.9c-4.25 0.01-8.49 0.01-12.7 0h-4.6c-14.8 0.02-14.8 0.02-21.2-1.13-1.87-1.87-1.17-4.93-1.18-7.44-0.02-1.17-0.03-2.34-0.05-3.55 0.45-5.78 3.56-5.26 8.55-5.26z" fill="#1E1F20"/>
<path transform="translate(927 309)" d="m0 0h3.27c12.4 0.16 21.9 1.02 31.2 9.69 6.93 7.16 8.52 14 8.58 23.8 0 0.77 0.01 1.54 0.01 2.34 0.01 1.63 0.02 3.26 0.02 4.89 0.01 2.48 0.04 4.95 0.07 7.43 0.01 1.59 0.02 3.18 0.02 4.77 0.01 0.74 0.03 1.47 0.04 2.22-0.04 8.14-2.56 14.5-8.37 20.3-7.2 5.5-13.8 6.15-22.6 6.16-1.23 0.01-1.23 0.01-2.48 0.01-1.72 0.01-3.44 0.01-5.16 0.01-2.61 0-5.22 0.02-7.83 0.04-1.68 0-3.36 0-5.03 0.01-0.78 0-1.55 0.01-2.34 0.02-9.34-0.04-16-2.34-23.2-8.51-8.76-10.1-8.74-22.6-8.13-35.4 0.04-1.17 0.08-2.34 0.12-3.55 0.67-16 0.67-16 5.44-22 0.49-0.62 0.97-1.24 1.46-1.89 9.29-9.98 22.1-10.2 34.9-10.2z" fill="#FEFEFE"/>
<path transform="translate(608 281)" d="m0 0c1.47 0.01 2.93 0.01 4.4 0.01 3.83 0.01 7.66 0.04 11.5 0.08 3.92 0.03 7.84 0.04 11.8 0.06 7.68 0.03 15.4 0.08 23 0.14 1.32 2.63 1.22 4.73 1.32 7.67 0.04 1.12 0.08 2.24 0.13 3.4 0.04 1.17 0.08 2.35 0.12 3.56 0.04 1.18 0.08 2.36 0.13 3.58 0.1 2.93 0.21 5.86 0.3 8.79-4.71 1.22-9.24 1.08-14.1 1l-5.4-0.06c-2.82-0.03-5.64-0.06-8.45-0.11-16.9-0.78-16.9-0.78-32.1 5.42-2.25 3.21-3.1 5.94-3.94 9.75-0.17 0.65-0.35 1.3-0.54 1.97-0.8 3.56-0.59 7.21-0.57 10.8v2.69c0 2.93 0.01 5.87 0.02 8.8v6.1c0 5.36 0.01 10.7 0.02 16.1 0.02 5.46 0.02 10.9 0.02 16.4 0.02 10.7 0.03 21.4 0.05 32.2-3.95 0.03-7.9 0.05-11.8 0.06-2.01 0.01-4.01 0.02-6.02 0.03-1.88 0.01-1.88 0.01-3.81 0.01-1.16 0.01-2.32 0.01-3.52 0.02-2.8-0.12-2.8-0.12-4.8-1.12-0.09-13.8-0.16-27.7-0.2-41.6-0.02-6.43-0.05-12.9-0.1-19.3-0.04-6.22-0.07-12.4-0.08-18.7 0-2.36-0.02-4.73-0.04-7.09-0.27-30.8-0.27-30.8 8.42-40.4 10.9-9.06 20.5-10.4 34.3-10.3z" fill="#1E1F20"/>
<path transform="translate(782 444)" d="m0 0c1.13-0.01 2.26-0.02 3.42-0.04 8.69-0.01 16.6 0.29 23.5 6.23 4.39 5.77 4.89 12 4 19-0.76 2.6-1.72 4.58-3 7-0.4 0.8-0.79 1.61-1.19 2.43-0.27 0.52-0.54 1.04-0.81 1.57 0.63 0.74 1.27 1.48 1.93 2.25 4.15 5.53 3.54 12.1 3.07 18.8-1.2 5.59-4.29 8.88-9 12-6.9 2.35-13.7 2.34-20.9 2.31-2 0-4.01 0.02-6.01 0.05-7.33 0-13.3-0.38-20.1-3.36-1.36-2.71-1.15-4.84-1.17-7.87-0.01-1.23-0.02-2.47-0.03-3.74 0-1.34 0-2.69-0.01-4.04 0-1.38-0.01-2.76-0.02-4.14-0.01-2.9-0.01-5.79-0.02-8.69 0-3.71-0.02-7.42-0.05-11.1-0.02-2.85-0.03-5.7-0.03-8.55 0-1.37-0.01-2.74-0.02-4.1-0.02-1.92-0.02-3.83-0.01-5.74-0.01-1.09-0.01-2.18-0.01-3.3 0.37-2.7 0.37-2.7 1.76-4.55 5.89-4.24 17.8-2.34 24.7-2.34z" fill="#1E1F20"/>
<path transform="translate(1022 459)" d="m0 0c0.77-0.01 1.54-0.03 2.34-0.04 5.19-0.01 9.64 0.66 14.6 2.23 2.37 2.37 2.37 2.37 4 5 0.35 0.53 0.71 1.07 1.08 1.61 1.4 3.63 1.26 7.29 1.29 11.1 0.01 1.28 0.01 1.28 0.03 2.57 0.01 1.79 0.02 3.59 0.02 5.38 0.01 2.73 0.06 5.47 0.11 8.2 0.01 1.74 0.02 3.49 0.03 5.23 0.02 0.81 0.04 1.63 0.06 2.47-0.04 4.23-0.25 5.92-2.91 9.4-5.86 4.34-12.8 3.23-19.9 3.25-2.14 0.01-4.27 0.04-6.4 0.07-1.37 0.01-2.75 0.01-4.12 0.02-1.23 0-2.47 0.01-3.75 0.02-4.18-0.41-6.8-1.53-10.6-3.35-1.36-0.62-1.36-0.62-2.75-1.25-4.07-3.17-5.06-7.22-5.69-12.2 0.7-5.68 2.76-9.84 6.75-13.9 7.19-4.34 15-4.03 23.1-4.25 1.2-0.04 2.41-0.07 3.66-0.11 2.96-0.1 5.93-0.18 8.9-0.26v-7c-9.17-1.05-18.2-1.03-27.4-0.79-1.07 0.02-2.14 0.03-3.24 0.05-0.96 0.02-1.92 0.04-2.91 0.06-2.46-0.32-2.46-0.32-4.28-1.62-1.95-2.81-1.48-5.4-1.18-8.7 2.82-2.82 5.64-2.47 9.44-2.63 0.74-0.03 1.49-0.07 2.26-0.11 5.78-0.25 11.6-0.39 17.4-0.45z" fill="#1E1F20"/>
<path transform="translate(1249 309)" d="m0 0c2.35 0.01 4.7 0 7.05-0.01 23.2-0.03 23.2-0.03 29.3 4.52 0.99 1.36 0.99 1.36 2 2.75 0.93 0.93 1.86 1.86 2.82 2.81 2.92 4.27 2.75 6.1 2.18 11.2-1.16 5.01-3.99 7.05-8 10-3.39 1.13-5.98 1.13-9.55 1.15-0.66 0-1.32 0-2 0.01-2.18 0.01-4.36 0.01-6.55 0.01-1.51 0-3.03 0.01-4.54 0.01-3.18 0-6.35 0.01-9.53 0.01-4.07 0-8.15 0.01-12.2 0.03-3.13 0.01-6.26 0.01-9.39 0.01-1.5 0-3 0.01-4.5 0.01-2.1 0.01-4.2 0.01-6.3 0-1.79 0.01-1.79 0.01-3.62 0.01-2.8-0.25-2.8-0.25-4.8-2.25-0.22-2.61-0.32-5.08-0.31-7.69-0.02-0.69-0.03-1.39-0.05-2.1 0-6.42 1.52-11 5.74-16 8.25-6.15 22.4-4.5 32.3-4.45z" fill="#FEFEFF"/>
<path transform="translate(1269 436)" d="m0 0c2.07 3.24 1.64 6.67 1.56 10.4-0.01 0.82-0.02 1.64-0.02 2.49-0.03 2.63-0.07 5.26-0.12 7.9-0.03 2.61-0.06 5.23-0.09 7.85-0.02 1.63-0.04 3.26-0.07 4.89-0.06 4.62 0.26 8.94 1.04 13.5 8.63-1.62 15-3.4 20.2-10.7 2.17-3.57 3.53-7.28 4.76-11.3 1-1 1-1 3.28-1.1 0.92 0.01 1.84 0.02 2.78 0.03 0.92 0.01 1.84 0.02 2.79 0.03 0.71 0.01 1.42 0.02 2.15 0.04 1.89 4.87-0.56 8.57-2.54 13.1-2.5 4.98-5.66 8.93-10.5 11.9h-2c1.21 1.54 1.21 1.54 2.45 3.11 14.6 18.8 14.6 18.8 14.6 26.9-3.4 0.35-6.61 0.51-10 0-2.6-2.8-3.74-5.44-5.32-8.88-2.44-4.52-5.98-9.77-10.7-12.1-2.04-0.07-4.09-0.09-6.13-0.07-1.09 0.01-2.19 0.02-3.32 0.03-0.84 0.01-1.68 0.02-2.55 0.04-0.03 0.56-0.05 1.13-0.08 1.71-0.11 2.55-0.24 5.11-0.36 7.66-0.04 0.89-0.08 1.78-0.12 2.7-0.04 0.85-0.08 1.7-0.13 2.57-0.05 1.18-0.05 1.18-0.11 2.39-0.2 1.97-0.2 1.97-1.2 3.97-1.63-0.12-3.25-0.25-4.88-0.38-0.9-0.07-1.81-0.14-2.74-0.21-2.38-0.41-2.38-0.41-4.38-2.41-0.26-2.95-0.26-2.95-0.28-6.78 0-0.69-0.01-1.39-0.01-2.11-0.02-2.3-0.02-4.61-0.01-6.92-0.01-1.6-0.01-3.2-0.02-4.8v-10.1c0.01-4.3-0.01-8.61-0.03-12.9-0.02-3.31-0.02-6.62-0.02-9.92 0-1.59 0-3.18-0.01-4.77-0.01-2.22-0.01-4.44 0.01-6.66-0.01-1.27-0.01-2.53-0.01-3.83 0.4-3.44 0.9-4.83 3.38-7.2 5.96-1.6 5.96-1.6 8.7-0.03z" fill="#1E1F20"/>
<path transform="translate(1128 550)" d="m0 0c6.88-0.38 14.5 1.21 19.9 5.7 1.18 1.49 1.18 1.49 1.18 3.49h2c2.26 10.4 3.98 21.1-1 31-3.23 4.13-6.86 6.87-12 8-9.35 0.81-17.4 0.8-24.9-5.37-5.54-6.85-5.59-16.1-4.88-24.6 0.98-5.71 2.54-10.7 7.4-14.3 4.11-2.51 7.58-3.51 12.3-3.98z" fill="#FDFAF5"/>
<path transform="translate(1160 459)" d="m0 0c1.27-0.02 2.55-0.04 3.86-0.06 1.23-0.01 2.45-0.01 3.71-0.02 1.11-0.01 2.23-0.02 3.38-0.03 3.25 0.4 4.61 1.08 6.93 3.36 0.49 2.19 0.49 2.19 0.43 4.56v2.38c-0.43 2.06-0.43 2.06-3.43 4.06-2.94 0.18-2.94 0.18-6.5 0.09-1.28-0.02-2.56-0.04-3.88-0.06-2.03-0.04-4.07-0.09-6.1-0.15-1.96-0.04-3.93-0.07-5.9-0.1-1.76-0.05-1.76-0.05-3.56-0.09-3.37 0.34-4.7 0.93-7.06 3.31-2.41 7.24-3.1 16-0.08 23.2 0.95 1.97 0.95 1.97 3.08 2.81 2.14 0.13 4.28 0.2 6.43 0.25 1.29 0.03 2.58 0.06 3.9 0.1 2.05 0.04 4.11 0.09 6.16 0.13 1.98 0.04 3.96 0.09 5.94 0.14 1.78 0.04 1.78 0.04 3.59 0.08 2.98 0.3 2.98 0.3 5.98 2.3 0.29 2.16 0.29 2.16 0.18 4.63-0.02 0.81-0.05 1.63-0.08 2.47-0.05 0.94-0.05 0.94-0.1 1.9-6.02 1.45-12 1.04-18.2 0.87-2.11-0.06-4.22-0.09-6.34-0.11-8.73-0.2-15.3-0.74-21.8-7.07-4.04-6.68-3.99-13.5-4-21.1-0.02-1-0.05-1.99-0.07-3.02-0.03-7.68 1.25-13.2 6.59-18.8 0.74-0.55 1.47-1.09 2.23-1.66 0.73-0.56 1.46-1.13 2.21-1.71 6.58-3.67 15.2-2.57 22.5-2.6z" fill="#1E1F20"/>
<path transform="translate(1186 551)" d="m0 0c2.17-0.01 4.34-0.04 6.51-0.07 1.39-0.01 2.78-0.01 4.17-0.02 1.26-0.01 2.52-0.02 3.82-0.03 4.58 0.47 7.86 1.98 11.4 4.92 1.13 1.44 1.13 1.44 1.13 3.44h2c1.28 5.71 0.84 8.88-2 14-2.85 3.36-4.68 5.25-9 6-1.59 0.08-3.18 0.11-4.77 0.1-0.89-0.01-1.78-0.01-2.69-0.01-0.92-0.01-1.84-0.02-2.79-0.03-0.94 0-1.87-0.01-2.84-0.01-2.3-0.01-4.61-0.03-6.91-0.05v18c-5.61 0.93-7.09 0.99-12-1-0.03-6.25-0.04-12.5-0.06-18.7 0-2.13-0.01-4.26-0.02-6.39-0.01-3.05-0.01-6.1-0.02-9.15 0-0.95-0.01-1.91-0.01-2.9v-2.67c-0.01-0.78-0.01-1.56-0.01-2.36 0.35-5.15 10-3.02 14.1-3.03z" fill="#FDFAF5"/>
<path transform="translate(1012,551)" d="m0 0h11v19h22c-0.04-5.88-0.04-5.88-0.09-11.8 0-0.73-0.01-1.45-0.01-2.2s-0.01-1.5-0.01-2.27c0.11-1.77 0.11-1.77 1.11-2.77h10v47c-9 0-9 0-11-1v-18h-22v19c-7 0-7 0-11-1v-46z" fill="#FDFAF5"/>
<path transform="translate(904 551)" d="m0 0c1.69 0 3.37 0.01 5.06 0.02h2.69c2.84 0.01 5.68 0.02 8.53 0.03 1.92 0.01 3.84 0.01 5.76 0.01 4.73 0.02 9.45 0.03 14.2 0.05l-1 8h-28v10c7.92 0.33 15.8 0.66 24 1v8c-1 1-1 1-3.22 1.12-0.96-0.01-1.92-0.01-2.9-0.02-1.56 0-1.56 0-3.14-0.01-1.09-0.01-2.18-0.02-3.3-0.02-1.64-0.01-1.64-0.01-3.31-0.02-2.71-0.01-5.42-0.03-8.13-0.05v9c0.82 0.03 1.63 0.05 2.47 0.08 3.66 0.12 7.31 0.24 11 0.36 1.92 0.06 1.92 0.06 3.88 0.12 1.82 0.06 1.82 0.06 3.68 0.13 1.13 0.03 2.25 0.07 3.41 0.11 2.59 0.2 2.59 0.2 3.59 1.2 0.05 2.34 0.05 4.67 0 7-35.2 1.62-35.2 1.62-40 0-0.02-6.39-0.04-12.8-0.05-19.2-0.01-2.17-0.01-4.35-0.02-6.52-0.01-3.13-0.02-6.25-0.02-9.37-0.01-0.97-0.01-1.95-0.02-2.96v-2.73c0-0.8 0-1.6-0.01-2.42 0.23-3.49 1.27-2.83 4.91-2.94z" fill="#FDFAF5"/>
<path transform="translate(1281,551)" d="m0 0h8c4.75 9.39 9.38 18.8 13.8 28.4 0.36 0.75 0.71 1.5 1.07 2.27 0.34 0.73 0.68 1.46 1.03 2.21 0.71 1.47 1.46 2.93 2.24 4.37 0.38 0.7 0.75 1.39 1.14 2.11 0.34 0.62 0.69 1.23 1.04 1.87 0.79 2.29 0.4 3.56-0.37 5.82-8.14 0.31-8.14 0.31-11-2l-1-5h-23l-3 6c-2.92 0.8-2.92 0.8-6.19 0.88-1.08 0.03-2.17 0.07-3.29 0.11-1.25 0.01-1.25 0.01-2.52 0.01 1.84-6.24 4.25-11.6 7.5-17.2 1.72-3.18 3.09-6.44 4.5-9.77 1.15-2.36 2.32-4.72 3.5-7.06 0.59-1.17 1.18-2.34 1.78-3.54 0.85-1.68 0.85-1.68 1.72-3.4l3-6z" fill="#FDFAF5"/>
<path transform="translate(899 436)" d="m0 0c1.33 0.01 1.33 0.01 2.69 0.02 0.88-0.01 1.77-0.01 2.69-0.02 2.31 0.27 2.31 0.27 4.31 2.27 0.25 3.06 0.25 3.06 0.26 7.06 0 0.73 0 1.45 0.01 2.2 0.01 2.41 0 4.82-0.01 7.23 0 1.67 0.01 3.34 0.01 5.02 0 3.5 0 7.01-0.01 10.5-0.01 4.49-0.01 8.99 0.01 13.5v10.4c-0.01 1.65 0 3.31 0 4.97 0.01 2.32 0 4.63-0.01 6.95-0.01 1.98-0.01 1.98-0.01 4-0.25 3.2-0.25 3.2-2.25 6.2-4.64 0.43-7.78-0.18-12-2-0.05-9.88-0.08-19.8-0.11-29.6-0.01-4.58-0.02-9.17-0.04-13.8-0.03-4.42-0.04-8.85-0.04-13.3-0.01-1.69-0.01-3.38-0.02-5.07-0.02-2.36-0.02-4.72-0.02-7.08-0.01-0.7-0.01-1.41-0.02-2.13 0.03-6.82 0.03-6.82 4.56-7.34z" fill="#1E1F20"/>
<path transform="translate(954 551)" d="m0 0c0.78 0 1.56 0 2.36 0.01h2.67c0.96 0 1.92 0.01 2.9 0.01 1.46 0 1.46 0 2.96 0.01 3.13 0 6.25 0.02 9.38 0.03 2.12 0 4.23 0.01 6.35 0.01 5.19 0.01 10.4 0.03 15.6 0.05 0.04 2.33 0.04 4.67 0 7l-1 1h-15v38c-2.99 1.5-5.7 1.12-9 1-1.49-0.49-1.49-0.49-3-1v-38h-16l-1-7c1-1 1-1 2.79-1.12z" fill="#FDFAF5"/>
<path transform="translate(1130 559)" d="m0 0c0.77-0.01 1.54-0.03 2.34-0.04 2.57 0.26 4.11 0.83 6.28 2.23 2.07 3.09 2.26 3.79 2.27 7.31 0 1.24 0 1.24 0.01 2.51-0.01 0.86-0.02 1.73-0.02 2.61 0 0.86 0.01 1.72 0.02 2.61 0 0.83-0.01 1.66-0.01 2.52 0 0.75 0 1.51-0.01 2.29-0.29 2.48-0.92 4.04-2.26 6.15-3.57 2.38-5.71 2.78-10 3-6.33-1.87-6.33-1.87-8.19-5.04-1.12-4.13-1.02-8.02-0.93-12.3 0.01-0.84 0.02-1.68 0.03-2.54 0.02-2.05 0.06-4.1 0.09-6.15h2c0.29-0.64 0.58-1.28 0.88-1.94 1.85-3.39 3.9-3.22 7.5-3.25z" fill="#FEFEFE"/>
<path transform="translate(1232,551)" d="m0 0h12v47c-10 0-10 0-12-1v-46z" fill="#FDFAF5"/>
<path transform="translate(1077,551)" d="m0 0h12v46c-9 1-9 1-12 0-0.17-6.39-0.33-12.8-0.48-19.2-0.06-2.18-0.11-4.35-0.17-6.53-0.08-3.12-0.16-6.24-0.23-9.36-0.03-0.98-0.05-1.96-0.08-2.97-0.02-0.9-0.04-1.8-0.06-2.73-0.02-0.79-0.04-1.59-0.06-2.41 0.08-1.83 0.08-1.83 1.08-2.83z" fill="#FDFAF5"/>
<path transform="translate(799 461)" d="m0 0c1.99 3.7 1.71 6.26 1.31 10.4-0.99 1.48-0.99 1.48-2 3-4.61 0.84-9.32 0.85-14 1-1.85 0.06-1.85 0.06-3.74 0.12-6.58 0.12-6.58 0.12-9.26-0.12-2-2-2-2-2.23-5.01 0.02-1.17 0.03-2.35 0.04-3.55 0.01-1.77 0.01-1.77 0.02-3.57 0.17-2.87 0.17-2.87 1.17-3.87 21.6-2.54 21.6-2.54 28.7 1.56z" fill="#FEFEFF"/>
<path transform="translate(788 485)" d="m0 0c4.57-0.16 7.72 0.03 11.2 3.17 1.69 3.37 2.25 5.09 1.25 8.75-1.25 2.25-1.25 2.25-3.25 4.25-2.61 0.23-2.61 0.23-5.88 0.19-1.17 0-2.34-0.01-3.54-0.02-1.22-0.01-2.44-0.03-3.71-0.05-1.23-0.01-2.46-0.02-3.73-0.02-3.04-0.03-6.09-0.06-9.14-0.1-1.75-3.28-2.25-5.45-2.19-9.19 0.01-0.88 0.02-1.76 0.02-2.67 0.17-2.14 0.17-2.14 1.17-3.14 5.92-0.61 11.9-0.82 17.8-1.17z" fill="#FEFEFF"/>
<path transform="translate(1032,492)" d="m0 0c2.3 3.45 2.34 4.95 2 9-2 2-2 2-4.58 2.24-1.07 0-2.13-0.01-3.23-0.01-1.16 0-2.32 0-3.51-0.01-1.21-0.01-2.43-0.02-3.68-0.03h-3.68c-9.04-0.05-9.04-0.05-11.3-1.19v-2h-2c0.88-6.88 0.88-6.88 2-8 9.04-1.33 19-2.06 28 0z" fill="#FEFEFF"/>
<path transform="translate(1192 559)" d="m0 0c1.02-0.04 1.02-0.04 2.05-0.09 3.45-0.04 5.31 0.16 8.12 2.23 1.52 2.17 1.52 2.17 1.45 5.3-0.93 2.87-0.93 2.87-3.93 4.87-2.59 0.17-5.05 0.24-7.63 0.19h-2.1c-5.13-0.05-5.13-0.05-6.27-1.19-0.1-1.66-0.13-3.33-0.13-5 0-0.91 0-1.81-0.01-2.75 0.29-4.84 4.59-3.51 8.45-3.56z" fill="#FDFEFE"/>
<path transform="translate(1283,568)" d="m0 0h3l1 3 2 2c2 6.33 2 6.33 2 8l-11 1c-1.11-5.55-0.63-6.34 2-11l1-3z" fill="#FCFEFE"/>
</svg>
